<svg xmlns="http://www.w3.org/2000/svg" width="26.041" height="24.955" viewBox="0 0 26.041 24.955">
  <defs>
    <style>
      .cls-1 {
        fill: lime;
      }
    </style>
  </defs>
  <path id="shapes-and-symbols" class="cls-1" d="M25.973,9.925a1.382,1.382,0,0,0-1.19-.95l-7.517-.682L14.294,1.337a1.385,1.385,0,0,0-2.547,0L8.776,8.292l-7.518.682A1.386,1.386,0,0,0,.471,11.4l5.683,4.983L4.478,23.759a1.384,1.384,0,0,0,2.06,1.5l6.482-3.876L19.5,25.255a1.385,1.385,0,0,0,2.061-1.5l-1.675-7.379L25.569,11.4a1.386,1.386,0,0,0,.4-1.471ZM13.145,21.3" transform="translate(0 -0.496)"/>
</svg>
